<?xml version="1.0" encoding="UTF-8" standalone="no"?>
<!DOCTYPE svg PUBLIC "-//W3C//DTD SVG 1.1//EN" "http://www.w3.org/Graphics/SVG/1.1/DTD/svg11.dtd">
<svg width="100%" height="100%" viewBox="0 0 180 145" version="1.1" xmlns="http://www.w3.org/2000/svg" xmlns:xlink="http://www.w3.org/1999/xlink" xml:space="preserve" xmlns:serif="http://www.serif.com/" style="fill-rule:evenodd;clip-rule:evenodd;stroke-linejoin:round;stroke-miterlimit:2;">
    <g transform="matrix(1,0,0,1,-2117,-640)">
        <g transform="matrix(1,0,0,1,-688.71,572.221)">
            <g transform="matrix(1,0,0,1,688.71,-572.221)">
                <path d="M2187.28,664.545L2226.25,664.545L2226.25,676.244C2226.25,679.618 2228.99,682.357 2232.36,682.357L2232.43,682.357C2235.8,682.357 2238.54,679.618 2238.54,676.244L2238.54,664.545L2247.44,664.545C2251.71,664.545 2255.19,668.018 2255.19,672.296L2255.19,761.173C2255.19,765.451 2251.71,768.924 2247.44,768.924L2166.09,768.924C2161.81,768.924 2158.34,765.451 2158.34,761.173L2158.34,672.296C2158.34,668.018 2161.81,664.545 2166.09,664.545L2174.99,664.545L2174.99,676.244C2174.99,679.618 2177.72,682.357 2181.1,682.357L2181.17,682.357C2184.54,682.357 2187.28,679.618 2187.28,676.244L2187.28,664.545ZM2242.54,668.545L2242.54,676.244C2242.54,681.826 2238.01,686.357 2232.43,686.357L2232.36,686.357C2226.78,686.357 2222.25,681.826 2222.25,676.244L2222.25,668.545L2191.28,668.545L2191.28,676.244C2191.28,681.826 2186.75,686.357 2181.17,686.357L2181.1,686.357C2175.52,686.357 2170.99,681.826 2170.99,676.244L2170.99,668.545L2166.09,668.545C2164.02,668.545 2162.34,670.226 2162.34,672.296C2162.34,672.296 2162.34,761.173 2162.34,761.173C2162.34,763.243 2164.02,764.924 2166.09,764.924L2247.44,764.924C2249.51,764.924 2251.19,763.243 2251.19,761.173C2251.19,761.173 2251.19,672.296 2251.19,672.296C2251.19,670.226 2249.51,668.545 2247.44,668.545L2242.54,668.545ZM2236.54,664.545L2236.54,676.244C2236.54,678.514 2234.7,680.357 2232.43,680.357L2232.36,680.357C2230.09,680.357 2228.25,678.514 2228.25,676.244L2228.25,664.545L2236.54,664.545ZM2185.28,664.545L2185.28,676.244C2185.28,678.514 2183.44,680.357 2181.17,680.357L2181.1,680.357C2178.83,680.357 2176.99,678.514 2176.99,676.244L2176.99,664.545L2185.28,664.545ZM2232.54,668.545L2232.25,668.545L2232.25,676.244C2232.25,676.306 2232.3,676.357 2232.36,676.357L2232.43,676.357C2232.49,676.357 2232.54,676.306 2232.54,676.244L2232.54,668.545ZM2181.28,668.545L2180.99,668.545L2180.99,676.244C2180.99,676.306 2181.04,676.357 2181.1,676.357L2181.17,676.357C2181.23,676.357 2181.28,676.306 2181.28,676.244L2181.28,668.545Z" style="fill:rgb(82,82,82);"/>
            </g>
            <g transform="matrix(1,0,0,1,688.71,-572.221)">
                <path d="M2187.28,664.545L2226.25,664.545L2226.25,676.244C2226.25,679.618 2228.99,682.357 2232.36,682.357L2232.43,682.357C2235.8,682.357 2238.54,679.618 2238.54,676.244L2238.54,664.545L2244.48,664.545C2250.39,664.545 2255.19,669.344 2255.19,675.255L2255.19,696.169L2158.34,696.169L2158.34,673.778C2158.34,668.682 2162.48,664.545 2167.57,664.545L2174.99,664.545L2174.99,676.244C2174.99,679.618 2177.72,682.357 2181.1,682.357L2181.17,682.357C2184.54,682.357 2187.28,679.618 2187.28,676.244L2187.28,664.545ZM2236.54,664.545L2236.54,676.244C2236.54,678.514 2234.7,680.357 2232.43,680.357L2232.36,680.357C2230.09,680.357 2228.25,678.514 2228.25,676.244L2228.25,664.545L2236.54,664.545ZM2185.28,664.545L2185.28,676.244C2185.28,678.514 2183.44,680.357 2181.17,680.357L2181.1,680.357C2178.83,680.357 2176.99,678.514 2176.99,676.244L2176.99,664.545L2185.28,664.545Z" style="fill:rgb(82,82,82);"/>
            </g>
            <g transform="matrix(72,0,0,72,2875.42,183.648)">
                <path d="M0.376,-0.352L0.373,-0.361C0.396,-0.352 0.417,-0.339 0.436,-0.323C0.455,-0.306 0.47,-0.286 0.481,-0.263C0.492,-0.24 0.497,-0.214 0.497,-0.187C0.497,-0.151 0.488,-0.118 0.469,-0.089C0.45,-0.06 0.424,-0.036 0.392,-0.019C0.359,-0.001 0.323,0.008 0.282,0.008C0.242,0.008 0.206,-0.001 0.174,-0.019C0.141,-0.036 0.116,-0.06 0.097,-0.089C0.078,-0.118 0.068,-0.151 0.068,-0.187C0.068,-0.216 0.074,-0.243 0.086,-0.266C0.097,-0.289 0.113,-0.308 0.132,-0.324C0.151,-0.34 0.17,-0.352 0.191,-0.361L0.187,-0.351C0.17,-0.36 0.153,-0.372 0.138,-0.387C0.122,-0.402 0.109,-0.42 0.099,-0.441C0.089,-0.462 0.084,-0.485 0.084,-0.51C0.084,-0.546 0.093,-0.578 0.111,-0.607C0.128,-0.636 0.152,-0.658 0.182,-0.675C0.212,-0.692 0.245,-0.7 0.282,-0.7C0.319,-0.7 0.352,-0.692 0.382,-0.675C0.412,-0.658 0.436,-0.636 0.453,-0.607C0.47,-0.578 0.479,-0.546 0.479,-0.51C0.479,-0.484 0.474,-0.461 0.464,-0.44C0.454,-0.419 0.441,-0.402 0.426,-0.387C0.41,-0.372 0.393,-0.36 0.376,-0.352ZM0.145,-0.51C0.145,-0.483 0.151,-0.46 0.164,-0.44C0.177,-0.42 0.194,-0.404 0.215,-0.393C0.236,-0.382 0.258,-0.376 0.282,-0.376C0.306,-0.376 0.328,-0.382 0.349,-0.393C0.37,-0.404 0.386,-0.42 0.399,-0.44C0.412,-0.46 0.418,-0.483 0.418,-0.51C0.418,-0.549 0.405,-0.581 0.38,-0.606C0.355,-0.631 0.322,-0.643 0.282,-0.643C0.241,-0.643 0.208,-0.631 0.183,-0.606C0.158,-0.581 0.145,-0.549 0.145,-0.51ZM0.282,-0.05C0.327,-0.05 0.364,-0.063 0.393,-0.089C0.422,-0.115 0.436,-0.148 0.436,-0.187C0.436,-0.214 0.429,-0.238 0.415,-0.259C0.401,-0.28 0.382,-0.297 0.359,-0.309C0.336,-0.321 0.31,-0.327 0.282,-0.327C0.255,-0.327 0.229,-0.321 0.206,-0.309C0.183,-0.297 0.164,-0.28 0.15,-0.259C0.136,-0.238 0.129,-0.214 0.129,-0.187C0.129,-0.148 0.143,-0.115 0.172,-0.089C0.2,-0.063 0.237,-0.05 0.282,-0.05Z" style="fill:rgb(82,82,82);fill-rule:nonzero;"/>
            </g>
            <g transform="matrix(1.19917,0,0,1.29806,338.413,-788.872)">
                <path d="M2114.45,675.483C2114.45,673.734 2112.91,672.314 2111.02,672.314L2110.96,672.314C2109.07,672.314 2107.53,673.734 2107.53,675.483L2107.53,687.867C2107.53,689.616 2109.07,691.035 2110.96,691.035L2111.02,691.035C2112.91,691.035 2114.45,689.616 2114.45,687.867L2114.45,675.483Z" style="fill:rgb(82,82,82);"/>
            </g>
            <g transform="matrix(1.19917,0,0,1.29806,389.674,-788.872)">
                <path d="M2114.45,675.483C2114.45,673.734 2112.91,672.314 2111.02,672.314L2110.96,672.314C2109.07,672.314 2107.53,673.734 2107.53,675.483L2107.53,687.867C2107.53,689.616 2109.07,691.035 2110.96,691.035L2111.02,691.035C2112.91,691.035 2114.45,689.616 2114.45,687.867L2114.45,675.483Z" style="fill:rgb(82,82,82);"/>
            </g>
        </g>
    </g>
</svg>
