<?xml version="1.0" encoding="UTF-8" standalone="no"?>
<!DOCTYPE svg PUBLIC "-//W3C//DTD SVG 1.1//EN" "http://www.w3.org/Graphics/SVG/1.1/DTD/svg11.dtd">
<svg width="100%" height="100%" viewBox="0 0 283 279" version="1.1" xmlns="http://www.w3.org/2000/svg" xmlns:xlink="http://www.w3.org/1999/xlink" xml:space="preserve" xmlns:serif="http://www.serif.com/" style="fill-rule:evenodd;clip-rule:evenodd;stroke-linecap:round;stroke-linejoin:round;stroke-miterlimit:1.5;">
    <g transform="matrix(1,0,0,1,-2422,-902)">
        <g id="Artboard11" transform="matrix(1,0,0,1,24.3775,902.432)">
            <rect x="2397.85" y="0" width="282.166" height="277.708" style="fill:none;"/>
            <g transform="matrix(1,0,0,1,-3.80324,7.96492)">
                <g transform="matrix(0.965926,-0.258819,0.258819,0.965926,71.7343,648.963)">
                    <g transform="matrix(0.965926,0.258819,-0.258819,0.965926,314.429,-1530.12)">
                        <path d="M2595.95,1104.37C2593.58,1094.28 2584.67,1057.85 2578.1,1051.35C2570.45,1043.77 2564.62,1036.87 2561.17,1027.86C2555.72,1013.62 2546.8,977.403 2545.41,965.923C2545,962.562 2545.81,961.455 2552.82,958.978C2555.01,958.205 2557.29,957.527 2559.39,956.961C2561.5,956.4 2563.81,955.846 2566.09,955.422C2573.4,954.062 2574.66,954.615 2575.98,957.73C2580.52,968.368 2590.9,1004.2 2593.3,1019.25C2594.82,1028.78 2593.22,1037.67 2590.39,1048.05C2587.95,1056.98 2598.44,1092.98 2601.43,1102.9C2609.52,1100.95 2615.94,1100.38 2616.28,1101.67C2616.67,1103.11 2609.41,1106.3 2600.08,1108.8C2590.75,1111.3 2582.86,1112.16 2582.48,1110.73C2582.13,1109.44 2587.98,1106.72 2595.95,1104.37ZM2587.89,1041.88C2585.87,1050.05 2583.01,1050.82 2577.17,1044.75C2570.38,1037.69 2565.18,1031.28 2562.05,1022.95C2557.1,1009.8 2548.83,976.389 2547.47,965.819C2547.07,962.724 2547.77,961.717 2553.87,959.528C2555.78,958.844 2557.77,958.25 2559.6,957.756C2561.44,957.267 2563.46,956.787 2565.45,956.425C2571.84,955.267 2572.94,955.791 2574.15,958.67C2578.25,968.506 2587.79,1001.57 2590.08,1015.44C2591.53,1024.22 2590.24,1032.37 2587.89,1041.88Z" style="fill:rgb(82,82,82);"/>
                    </g>
                    <g transform="matrix(0.778248,0,0,0.76797,544.082,-666.1)">
                        <path d="M2569.67,1055.1C2565.01,1063.09 2561.61,1063.09 2556.95,1055.1C2551.52,1045.8 2547.68,1037.63 2546.68,1028.03C2545.1,1012.87 2545.85,975.574 2547.48,964.124C2547.96,960.772 2549.03,959.913 2556.44,959.335C2558.75,959.154 2561.13,959.09 2563.31,959.087C2565.49,959.09 2567.87,959.154 2570.18,959.335C2577.59,959.913 2578.66,960.772 2579.14,964.124C2580.76,975.574 2581.52,1012.87 2579.94,1028.03C2578.94,1037.63 2575.1,1045.8 2569.67,1055.1Z" style="fill:rgb(82,82,82);"/>
                    </g>
                    <g transform="matrix(1.474,0,0,2.0908,-1238.89,-1957.45)">
                        <path d="M2563.01,963.34C2568.55,963.34 2573.05,963.873 2573.05,964.53C2573.05,965.187 2568.55,965.72 2563.01,965.72C2557.47,965.72 2552.97,965.187 2552.97,964.53C2552.97,963.873 2557.47,963.34 2563.01,963.34ZM2570.9,964.53L2570.88,964.527C2569.11,964.24 2566.24,964.057 2563.01,964.057C2559.78,964.057 2556.91,964.24 2555.13,964.527L2555.11,964.53L2555.13,964.533C2556.91,964.82 2559.78,965.002 2563.01,965.002C2566.24,965.002 2569.11,964.82 2570.88,964.533L2570.9,964.53Z" style="fill:rgb(82,82,82);"/>
                    </g>
                </g>
                <g transform="matrix(1,0,0,1,-31.6862,3.6014)">
                    <g transform="matrix(1,0,0,1,11.1119,-913.998)">
                        <path d="M2524.98,1122.5C2525.3,1112.14 2526.12,1074.65 2521.46,1066.66C2516.03,1057.37 2512.19,1049.19 2511.19,1039.6C2509.61,1024.44 2510.36,987.14 2511.99,975.69C2512.47,972.338 2513.54,971.479 2520.95,970.901C2523.26,970.72 2525.64,970.656 2527.82,970.653C2530,970.656 2532.38,970.72 2534.69,970.901C2542.1,971.479 2543.17,972.338 2543.65,975.69C2545.28,987.14 2546.03,1024.44 2544.45,1039.6C2543.45,1049.19 2539.61,1057.37 2534.18,1066.66C2529.52,1074.65 2530.34,1112.14 2530.66,1122.5C2538.97,1122.71 2545.32,1123.82 2545.32,1125.16C2545.32,1126.64 2537.48,1127.85 2527.82,1127.85C2518.16,1127.85 2510.32,1126.64 2510.32,1125.16C2510.32,1123.82 2516.67,1122.71 2524.98,1122.5ZM2533.37,1060.05C2529.3,1067.42 2526.34,1067.42 2522.27,1060.05C2517.53,1051.48 2514.18,1043.94 2513.31,1035.08C2511.93,1021.1 2512.59,986.686 2514.01,976.123C2514.43,973.031 2515.36,972.238 2521.83,971.705C2523.84,971.538 2525.92,971.479 2527.82,971.476C2529.72,971.479 2531.8,971.538 2533.81,971.705C2540.28,972.238 2541.21,973.031 2541.63,976.123C2543.05,986.686 2543.7,1021.1 2542.33,1035.08C2541.46,1043.94 2538.1,1051.48 2533.37,1060.05Z" style="fill:rgb(82,82,82);"/>
                    </g>
                    <g transform="matrix(0.778248,0,0,0.76797,544.082,-666.1)">
                        <path d="M2569.67,1055.1C2565.01,1063.09 2561.61,1063.09 2556.95,1055.1C2551.52,1045.8 2547.68,1037.63 2546.68,1028.03C2545.1,1012.87 2545.85,975.574 2547.48,964.124C2547.96,960.772 2549.03,959.913 2556.44,959.335C2558.75,959.154 2561.13,959.09 2563.31,959.087C2565.49,959.09 2567.87,959.154 2570.18,959.335C2577.59,959.913 2578.66,960.772 2579.14,964.124C2580.76,975.574 2581.52,1012.87 2579.94,1028.03C2578.94,1037.63 2575.1,1045.8 2569.67,1055.1Z" style="fill:rgb(82,82,82);"/>
                    </g>
                    <g transform="matrix(1.474,0,0,2.0908,-1238.89,-1957.45)">
                        <path d="M2563.01,963.34C2568.55,963.34 2573.05,963.873 2573.05,964.53C2573.05,965.187 2568.55,965.72 2563.01,965.72C2557.47,965.72 2552.97,965.187 2552.97,964.53C2552.97,963.873 2557.47,963.34 2563.01,963.34ZM2570.9,964.53L2570.88,964.527C2569.11,964.24 2566.24,964.057 2563.01,964.057C2559.78,964.057 2556.91,964.24 2555.13,964.527L2555.11,964.53L2555.13,964.533C2556.91,964.82 2559.78,965.002 2563.01,965.002C2566.24,965.002 2569.11,964.82 2570.88,964.533L2570.9,964.53Z" style="fill:rgb(82,82,82);"/>
                    </g>
                </g>
                <g transform="matrix(0.518541,0.29938,-0.5,0.866025,1668.79,-1512.02)">
                    <path d="M2524.49,933.273L2536.4,933.273" style="fill:none;stroke:rgb(82,82,82);stroke-width:1.82px;"/>
                </g>
                <g transform="matrix(0.29938,0.518541,-0.866025,0.5,2567.78,-1728.9)">
                    <path d="M2524.49,933.273L2536.4,933.273" style="fill:none;stroke:rgb(82,82,82);stroke-width:1.82px;"/>
                </g>
                <g transform="matrix(-1.11022e-16,0.59876,-1,-2.77556e-17,3454.77,-1467.24)">
                    <path d="M2524.49,933.273L2536.4,933.273" style="fill:none;stroke:rgb(82,82,82);stroke-width:1.82px;"/>
                </g>
            </g>
        </g>
    </g>
</svg>
