<?xml version="1.0" encoding="UTF-8" standalone="no"?>
<!DOCTYPE svg PUBLIC "-//W3C//DTD SVG 1.1//EN" "http://www.w3.org/Graphics/SVG/1.1/DTD/svg11.dtd">
<svg width="100%" height="100%" viewBox="0 0 180 142" version="1.1" xmlns="http://www.w3.org/2000/svg" xmlns:xlink="http://www.w3.org/1999/xlink" xml:space="preserve" xmlns:serif="http://www.serif.com/" style="fill-rule:evenodd;clip-rule:evenodd;stroke-linejoin:round;stroke-miterlimit:2;">
    <g transform="matrix(1,0,0,1,-2117,-310)">
        <g transform="matrix(1,0,0,1,-688.71,242.01)">
            <g transform="matrix(1,0,0,1,21.8755,37.8105)">
                <g transform="matrix(1,0,0,1,688.71,-242.01)">
                    <path d="M2149.5,362.218L2140.58,362.218L2128.55,373.38L2128.55,360.467C2122.55,357.586 2118.41,351.455 2118.41,344.364L2118.41,308.657C2118.41,298.803 2126.41,290.803 2136.27,290.803L2209.1,290.803C2218.95,290.803 2226.95,298.803 2226.95,308.657L2226.95,315.107L2166.79,315.107C2157.28,315.107 2149.5,323.246 2149.5,333.341L2149.5,362.218Z" style="fill:rgb(82,82,82);"/>
                </g>
                <g transform="matrix(1,0,0,1.06158,683.377,-266.538)">
                    <path d="M2235.55,382.987L2172.12,382.987C2163.68,382.987 2156.83,376.134 2156.83,367.694L2156.83,337.11C2156.83,328.67 2163.68,321.818 2172.12,321.818L2241.41,321.818C2249.85,321.818 2256.7,328.67 2256.7,337.11L2256.7,367.694C2256.7,374.019 2252.85,379.453 2247.37,381.778L2247.37,395.48L2235.55,382.987Z" style="fill:rgb(82,82,82);"/>
                </g>
            </g>
        </g>
    </g>
</svg>
