<?xml version="1.0" encoding="UTF-8" standalone="no"?>
<!DOCTYPE svg PUBLIC "-//W3C//DTD SVG 1.1//EN" "http://www.w3.org/Graphics/SVG/1.1/DTD/svg11.dtd">
<svg width="100%" height="100%" viewBox="0 0 195 194" version="1.1" xmlns="http://www.w3.org/2000/svg" xmlns:xlink="http://www.w3.org/1999/xlink" xml:space="preserve" xmlns:serif="http://www.serif.com/" style="fill-rule:evenodd;clip-rule:evenodd;stroke-linejoin:round;stroke-miterlimit:2;">
    <g transform="matrix(1,0,0,1,-2466,-615)">
        <g transform="matrix(1,0,0,1,-332.166,572.221)">
            <g transform="matrix(1,0,0,1,332.166,-572.221)">
                <path d="M2582.51,674.426L2574.78,682.159L2525.24,682.159C2521.92,682.159 2519.22,684.855 2519.22,688.177L2519.22,749.714C2519.22,753.035 2521.92,755.732 2525.24,755.732L2586.78,755.732C2590.1,755.732 2592.8,753.035 2592.8,749.714L2592.8,701.486L2600.53,693.754L2600.53,756.182C2600.53,760.201 2597.26,763.464 2593.24,763.464L2518.77,763.464C2514.75,763.464 2511.49,760.201 2511.49,756.182L2511.49,681.709C2511.49,677.69 2514.75,674.426 2518.77,674.426L2582.51,674.426Z" style="fill:rgb(82,82,82);"/>
            </g>
            <g transform="matrix(1,0,0,1,332.166,-572.221)">
                <path d="M2596.68,670.16L2605.45,678.933L2551.36,733.023L2534.8,740.805L2542.59,724.249L2596.68,670.16ZM2599.51,667.32L2604.99,661.849C2607.22,659.612 2611.01,659.765 2613.43,662.191C2615.85,664.607 2616,668.378 2613.78,670.606L2608.29,676.094L2599.51,667.32Z" style="fill:rgb(82,82,82);"/>
            </g>
        </g>
    </g>
</svg>
