<?xml version="1.0" encoding="UTF-8" standalone="no"?>
<!DOCTYPE svg PUBLIC "-//W3C//DTD SVG 1.1//EN" "http://www.w3.org/Graphics/SVG/1.1/DTD/svg11.dtd">
<svg width="100%" height="100%" viewBox="0 0 225 78" version="1.1" xmlns="http://www.w3.org/2000/svg" xmlns:xlink="http://www.w3.org/1999/xlink" xml:space="preserve" xmlns:serif="http://www.serif.com/" style="fill-rule:evenodd;clip-rule:evenodd;stroke-linejoin:round;stroke-miterlimit:2;">
    <g transform="matrix(1,0,0,1,-2094,-1002)">
        <g transform="matrix(0.478937,0,0,0.235318,1088.03,902.432)">
            <g transform="matrix(2.08796,0,0,4.24957,-2271.75,-3834.95)">
                <path d="M2112.26,1073.73C2125.54,1078.28 2145,1079.86 2163.27,1079.47C2164.53,1079.44 2165.78,1079.22 2166.98,1078.82C2180.81,1074.18 2270.98,1043.92 2298.05,1034.83C2303.11,1033.13 2307.76,1030.39 2311.69,1026.78C2313.16,1025.42 2314.66,1024.05 2315.83,1022.97C2317.28,1021.63 2318.17,1019.79 2318.32,1017.82C2318.32,1017.82 2318.32,1017.82 2318.32,1017.82C2318.44,1016.16 2317.67,1014.57 2316.3,1013.63C2315.81,1013.3 2315.28,1012.94 2314.77,1012.59C2312.84,1011.27 2310.57,1010.57 2308.24,1010.57C2306.68,1010.57 2304.81,1010.57 2303.05,1010.57C2299.07,1010.57 2295.12,1011.22 2291.35,1012.49C2277.63,1017.12 2243.09,1028.76 2233.06,1032.15C2231.27,1032.75 2229.32,1032.7 2227.56,1032C2215.54,1027.19 2167.26,1007.9 2156.81,1003.73C2155.61,1003.25 2154.23,1003.56 2153.34,1004.51C2152.07,1005.88 2150.2,1007.89 2148.76,1009.43C2147.56,1010.72 2147.5,1012.7 2148.62,1014.06C2155.56,1022.46 2178.52,1050.24 2178.52,1050.24" style="fill:rgb(82,82,82);"/>
            </g>
            <g transform="matrix(2.08796,0,0,4.24957,-2271.75,-3834.95)">
                <path d="M2134.38,1061.55C2134.38,1061.55 2108.8,1049.4 2102.13,1046.24C2101.18,1045.78 2100.05,1045.94 2099.25,1046.64C2098.42,1047.37 2097.32,1048.33 2096.37,1049.16C2095.24,1050.14 2095.12,1051.86 2096.1,1052.99C2100.36,1057.91 2110.79,1070 2110.79,1070" style="fill:rgb(82,82,82);"/>
            </g>
        </g>
    </g>
</svg>
