<?xml version="1.0" encoding="UTF-8" standalone="no"?>
<!DOCTYPE svg PUBLIC "-//W3C//DTD SVG 1.1//EN" "http://www.w3.org/Graphics/SVG/1.1/DTD/svg11.dtd">
<svg width="100%" height="100%" viewBox="0 0 18 18" version="1.1" xmlns="http://www.w3.org/2000/svg" xmlns:xlink="http://www.w3.org/1999/xlink" xml:space="preserve" xmlns:serif="http://www.serif.com/" style="fill-rule:evenodd;clip-rule:evenodd;stroke-linejoin:round;stroke-miterlimit:2;">
    <g transform="matrix(1,0,0,1,-1,-1)">
        <g transform="matrix(0.0104167,0,0,0.0185185,0,0)">
            <g id="Plus" transform="matrix(96,0,0,54,0,0)">
                <path d="M8,8L8,3C8,1.896 8.896,1 10,1C11.104,1 12,1.896 12,3L12,8L17,8C18.104,8 19,8.896 19,10C19,11.104 18.104,12 17,12L12,12L12,17C12,18.104 11.104,19 10,19C8.896,19 8,18.104 8,17L8,12L3,12C1.896,12 1,11.104 1,10C1,8.896 1.896,8 3,8L8,8Z" style="fill:rgb(82,82,82);"/>
            </g>
        </g>
    </g>
</svg>
